# xmcd
#
# Track frame offsets:
#	150
#	14835
#	34242
#	53280
#	69802
#	87907
#	103180
#	119297
#	130120
#	147567
#	159890
#	175650
#	186987
#
# Disc length: 2678 seconds
#
# Revision: 0
# Processed by: cddbd v1.4PL0 Copyright (c) Steve Scherf et al.
# Submitted via: dBpowerAMP V4.0
#
DISCID=aa0a740d
DTITLE=Selwyn Cooper and Zydeco Huricanes - Louisiana Zydeco
DYEAR=1995
DGENRE=Zydeco
TTITLE0=Big Mamou
TTITLE1=I'm Coming Home
TTITLE2=Tante Na Na
TTITLE3=Life Must Go On
TTITLE4=The Night Time Is The Right Time
TTITLE5=Hot Tamale Baby
TTITLE6=Tonight Is The Night
TTITLE7=Hurricane Shuffle
TTITLE8=No Good Wooman
TTITLE9=Do Right Somtime
TTITLE10=I Woke Up This Morning
TTITLE11=Do You Love Me?
TTITLE12=Midnight Mood
EXTD=Zydeco
EXTT0=
EXTT1=
EXTT2=
EXTT3=
EXTT4=
EXTT5=
EXTT6=
EXTT7=
EXTT8=
EXTT9=
EXTT10=
EXTT11=
EXTT12=
PLAYORDER=
